<svg xmlns="http://www.w3.org/2000/svg" xmlns:xlink="http://www.w3.org/1999/xlink" width="1000" zoomAndPan="magnify" viewBox="0 0 750 149.999998" height="200" preserveAspectRatio="xMidYMid meet" version="1.0"><defs><g/></defs><g fill="#cbb681" fill-opacity="1"><g transform="translate(20.889418, 122.727115)"><g><path d="M 8.984375 0 L 8.984375 -92.75 L 55.796875 -92.75 L 84.265625 -45.6875 L 85.25 -43.5625 L 85.375 -43.5625 L 86.375 -45.6875 L 114.71875 -92.75 L 161.65625 -92.75 L 161.65625 0 L 123.953125 0 L 123.953125 -50.6875 L 124.078125 -52.796875 L 123.328125 -51.0625 L 99.734375 -12.109375 L 70.90625 -12.109375 L 47.3125 -51.0625 L 46.5625 -52.796875 L 46.6875 -50.6875 L 46.6875 0 Z M 8.984375 0 "/></g></g></g><g fill="#cbb681" fill-opacity="1"><g transform="translate(182.151656, 122.727115)"><g><path d="M 8.984375 0 L 8.984375 -92.75 L 52.171875 -92.75 L 100.609375 -43.9375 L 101.609375 -42.5625 L 101.609375 -92.75 L 139.8125 -92.75 L 139.8125 0 L 96.734375 0 L 48.0625 -48.9375 L 47.1875 -50.0625 L 47.1875 0 Z M 8.984375 0 "/></g></g></g><g fill="#ded9cc" fill-opacity="1"><g transform="translate(321.58081, 122.727115)"><g><path d="M 69.65625 2.75 C 57.582031 2.75 47.507812 1.75 39.4375 -0.25 C 31.375 -2.25 24.945312 -5.242188 20.15625 -9.234375 C 15.375 -13.234375 11.941406 -18.1875 9.859375 -24.09375 C 7.773438 -30 6.734375 -36.863281 6.734375 -44.6875 L 6.734375 -92.75 L 50.5625 -92.75 L 50.5625 -43.6875 C 50.5625 -31.875 56.925781 -25.96875 69.65625 -25.96875 C 76.0625 -25.96875 80.820312 -27.460938 83.9375 -30.453125 C 87.0625 -33.453125 88.625 -37.78125 88.625 -43.4375 L 88.625 -92.75 L 132.5625 -92.75 L 132.5625 -44.3125 C 132.5625 -36.738281 131.5625 -30.039062 129.5625 -24.21875 C 127.570312 -18.394531 124.222656 -13.484375 119.515625 -9.484375 C 114.816406 -5.492188 108.390625 -2.457031 100.234375 -0.375 C 92.078125 1.707031 81.882812 2.75 69.65625 2.75 Z M 69.65625 2.75 "/></g></g></g><g fill="#ded9cc" fill-opacity="1"><g transform="translate(451.51414, 122.727115)"><g><path d="M 8.984375 0 L 8.984375 -92.75 L 78.140625 -92.75 C 92.617188 -92.75 104.332031 -90.726562 113.28125 -86.6875 C 122.226562 -82.65625 128.78125 -77.144531 132.9375 -70.15625 C 137.101562 -63.164062 139.1875 -55.21875 139.1875 -46.3125 C 139.1875 -39.820312 138.082031 -33.785156 135.875 -28.203125 C 133.664062 -22.628906 130.171875 -17.71875 125.390625 -13.46875 C 120.609375 -9.226562 114.328125 -5.921875 106.546875 -3.546875 C 98.765625 -1.179688 89.296875 0 78.140625 0 Z M 52.921875 -26.34375 L 70.53125 -26.34375 C 78.1875 -26.34375 84.113281 -27.859375 88.3125 -30.890625 C 92.519531 -33.929688 94.625 -39.070312 94.625 -46.3125 C 94.625 -53.632812 92.519531 -58.832031 88.3125 -61.90625 C 84.113281 -64.988281 78.144531 -66.53125 70.40625 -66.53125 L 52.921875 -66.53125 Z M 52.921875 -26.34375 "/></g></g></g><g fill="#ded9cc" fill-opacity="1"><g transform="translate(584.318237, 122.727115)"><g><path d="M 0.75 0 L 40.5625 -92.75 L 103.234375 -92.75 L 143.921875 0 L 96.734375 0 L 91.625 -15.109375 L 52.921875 -15.109375 L 47.8125 0 Z M 60.671875 -37.828125 L 83.890625 -37.828125 L 73.40625 -68.78125 L 72.53125 -72.15625 L 72.03125 -72.15625 L 71.15625 -68.78125 Z M 60.671875 -37.828125 "/></g></g></g></svg>